<?xml version="1.0" standalone="no"?>
<!DOCTYPE svg PUBLIC "-//W3C//DTD SVG 1.1//EN" "http://www.w3.org/Graphics/SVG/1.1/DTD/svg11.dtd" >
<!--
2013-9-30: Created.
-->
<svg>
<metadata>
Created by iconfont
</metadata>
<defs>

<font id="iconfont" horiz-adv-x="1024" >
  <font-face
    font-family="iconfont"
    font-weight="500"
    font-stretch="normal"
    units-per-em="1024"
    ascent="896"
    descent="-128"
  />
    <missing-glyph />
    
    <glyph glyph-name="x" unicode="x" horiz-adv-x="1001"
d="M281 543q-27 -1 -53 -1h-83q-18 0 -36.5 -6t-32.5 -18.5t-23 -32t-9 -45.5v-76h912v41q0 16 -0.5 30t-0.5 18q0 13 -5 29t-17 29.5t-31.5 22.5t-49.5 9h-133v-97h-438v97zM955 310v-52q0 -23 0.5 -52t0.5 -58t-10.5 -47.5t-26 -30t-33 -16t-31.5 -4.5q-14 -1 -29.5 -0.5
t-29.5 0.5h-32l-45 128h-439l-44 -128h-29h-34q-20 0 -45 1q-25 0 -41 9.5t-25.5 23t-13.5 29.5t-4 30v167h911zM163 247q-12 0 -21 -8.5t-9 -21.5t9 -21.5t21 -8.5q13 0 22 8.5t9 21.5t-9 21.5t-22 8.5zM316 123q-8 -26 -14 -48q-5 -19 -10.5 -37t-7.5 -25t-3 -15t1 -14.5
t9.5 -10.5t21.5 -4h37h67h81h80h64h36q23 0 34 12t2 38q-5 13 -9.5 30.5t-9.5 34.5q-5 19 -11 39h-368zM336 498v228q0 11 2.5 23t10 21.5t20.5 15.5t34 6h188q31 0 51.5 -14.5t20.5 -52.5v-227h-327z" />
    

    
    <glyph glyph-name="all_icon_choose_sele" unicode="&#58895;" d="M512 896a512 512 0 1 0 0-1024A512 512 0 0 0 512 896z m0-365.714286a146.285714 146.285714 0 1 1 0-292.571428 146.285714 146.285714 0 0 1 0 292.571428z"  horiz-adv-x="1024" />

    
    <glyph glyph-name="all_icon_clock" unicode="&#58896;" d="M512 817.230769a433.230769 433.230769 0 1 1 0-866.461538 433.230769 433.230769 0 0 1 0 866.461538z m0 78.769231a512 512 0 1 0 0-1024 512 512 0 0 0 0 1024zM472.615385 659.692308l78.76923 0 0-315.076923-78.76923 0 0 315.076923ZM751.125028 200.57323l-55.698258-55.698258-222.793028 222.793029 55.698257 55.698257 222.793029-222.793028Z"  horiz-adv-x="1024" />

    
    <glyph glyph-name="all_icon_close" unicode="&#58897;" d="M512 475.940571L879.762286 843.702857l91.940571-91.940571L603.940571 384l367.762286-367.762286-91.940571-91.940571L512 292.059429l-367.762286-367.762286-91.940571 91.940571L420.059429 384 52.297143 751.762286 144.237714 843.702857 512 475.940571z"  horiz-adv-x="1024" />

    
    <glyph glyph-name="all_icon_add" unicode="&#58898;" d="M490.666667 405.333333V896h42.666666v-490.666667h490.666667v-42.666666H533.333333v-490.666667h-42.666666V362.666667H0v42.666666h490.666667z"  horiz-adv-x="1024" />

    
    <glyph glyph-name="all_icon_addmore" unicode="&#58899;" d="M512 827.733333a443.733333 443.733333 0 1 1 0-887.466666 443.733333 443.733333 0 0 1 0 887.466666z m0 68.266667a512 512 0 1 0 0-1024 512 512 0 0 0 0 1024zM204.8 349.866667V418.133333h614.4v-68.266666H204.8z m273.066667 341.333333h68.266666v-614.4H477.866667V691.2z"  horiz-adv-x="1024" />

    
    <glyph glyph-name="all_icon_choose_defa" unicode="&#58900;" d="M512 822.857143a438.857143 438.857143 0 1 1 0-877.714286A438.857143 438.857143 0 0 1 512 822.857143z m0 73.142857a512 512 0 1 0 0-1024A512 512 0 0 0 512 896z"  horiz-adv-x="1024" />

    
    <glyph glyph-name="all_icon_circle_sele" unicode="&#58901;" d="M512 896C226.742857 896 0 669.257143 0 384s226.742857-512 512-512 512 226.742857 512 512-226.742857 512-512 512z m351.085714-394.971429l-416.914285-416.914285c-14.628571-14.628571-36.571429-14.628571-51.2 0L175.542857 310.857143c-14.628571 14.628571-14.628571 36.571429 0 51.2 14.628571 14.628571 36.571429 14.628571 51.2 0L424.228571 164.571429l387.657143 387.657142c14.628571 14.628571 36.571429 14.628571 51.2 0 14.628571-14.628571 14.628571-36.571429 0-51.2z"  horiz-adv-x="1024" />

    
    <glyph glyph-name="all_icon_delete" unicode="&#58902;" d="M398.222222 782.222222v-56.888889h227.555556V782.222222H398.222222zM341.333333 839.111111h341.333334v-170.666667H341.333333V839.111111zM56.888889 668.444444V725.333333h910.222222v-56.888889H56.888889z m170.666667 0v-739.555555h568.888888V668.444444H227.555556zM170.666667 725.333333h682.666666v-853.333333H170.666667V725.333333z m199.111111-227.555555h56.888889v-341.333334h-56.888889V497.777778z m227.555555 0h56.888889v-341.333334h-56.888889V497.777778z"  horiz-adv-x="1024" />

    
    <glyph glyph-name="all_icon_drop" unicode="&#58903;" d="M765.513143 34.377143L41.398857 758.491429 144.822857 861.915429l724.114286-724.114286 724.114286 724.114286 103.424-103.424L868.937143-69.046857l-103.424 103.570286z"  horiz-adv-x="1755" />

    
    <glyph glyph-name="all_icon_index" unicode="&#58904;" d="M871.923003 509.985851v-568.868347h-196.771561c0.056887 0.796416 0.455095 1.479058 0.455094 2.275473v281.532945a150.863885 150.863885 0 0 1-150.750111 150.693225h-26.054171a150.863885 150.863885 0 0 1-150.693225-150.750112v-281.419171c0-0.853303 0.398208-1.535945 0.455095-2.33236H134.840286V505.264243c0 2.275473-0.796416 4.323399-1.308397 6.428213L508.017922 830.998258l366.123667-310.374569a27.760775 27.760775 0 0 1-2.161699-10.637838zM405.052751-47.05003399999998v271.919069c0 51.76702 42.096258 93.863277 93.863277 93.863277h25.997283c51.76702 0 93.863277-42.096258 93.863278-93.863277v-271.919069H405.052751zM1008.622066 480.234036L526.051048 889.250377a28.102096 28.102096 0 0 1-36.407574 0L9.859911 480.120262a28.158983 28.158983 0 0 1 36.521347-42.778899l31.515307 26.907472v-551.631635a28.443417 28.443417 0 0 1 28.443417-28.443417h794.026438a28.443417 28.443417 0 0 1 28.443417 28.443417v561.473058l43.461542-36.805782a28.158983 28.158983 0 0 1 36.407574 42.892673z"  horiz-adv-x="1024" />

    
    <glyph glyph-name="all_icon_magnify" unicode="&#58905;" d="M614.001778 184.888889l40.220444 40.220444 267.776-267.776-40.220444-40.220444-267.776 267.776zM398.222222 782.222222a284.444444 284.444444 0 0 1-284.444444-284.444444v-56.888889a284.444444 284.444444 0 0 1 284.444444-284.444445h56.888889a284.444444 284.444444 0 0 1 284.444445 284.444445V497.777778a284.444444 284.444444 0 0 1-284.444445 284.444444H398.222222z m0 56.888889h56.888889a341.333333 341.333333 0 0 0 341.333333-341.333333v-56.888889a341.333333 341.333333 0 0 0-341.333333-341.333333H398.222222a341.333333 341.333333 0 0 0-341.333333 341.333333V497.777778a341.333333 341.333333 0 0 0 341.333333 341.333333zM170.666667 440.888889V497.777778h512v-56.888889H170.666667z m227.555555 284.444444h56.888889v-512H398.222222V725.333333z"  horiz-adv-x="1024" />

    
    <glyph glyph-name="all_icon_nextpage" unicode="&#58906;" d="M307.2 687.035733L621.090133 373.077333 307.2 59.255467l72.362667-72.362667 386.389333 386.2528-72.362667 72.4992L379.562667 759.466667z"  horiz-adv-x="1024" />

    
    <glyph glyph-name="all_icon_previous" unicode="&#58907;" d="M296.96 486.546286L219.428571 409.014857 296.96 331.337143l336.457143-336.310857 77.531428 77.604571-336.310857 336.310857L710.948571 745.179429 633.417143 822.857143z"  horiz-adv-x="1024" />

    
    <glyph glyph-name="all_icon_merge" unicode="&#58908;" d="M204.8 827.733333a136.533333 136.533333 0 0 1-136.533333-136.533333v-614.4a136.533333 136.533333 0 0 1 136.533333-136.533333h614.4a136.533333 136.533333 0 0 1 136.533333 136.533333V691.2a136.533333 136.533333 0 0 1-136.533333 136.533333H204.8z m0 68.266667h614.4a204.8 204.8 0 0 0 204.8-204.8v-614.4a204.8 204.8 0 0 0-204.8-204.8H204.8a204.8 204.8 0 0 0-204.8 204.8V691.2a204.8 204.8 0 0 0 204.8 204.8z m0-546.133333V418.133333h614.4v-68.266666H204.8z"  horiz-adv-x="1024" />

    
    <glyph glyph-name="all_icon_tick_defaul" unicode="&#58909;" d="M914.285714-128h-804.571428C51.2-128 0-76.8 0-18.285714v804.571428C0 844.8 51.2 896 109.714286 896h804.571428c58.514286 0 109.714286-51.2 109.714286-109.714286v-804.571428c0-58.514286-51.2-109.714286-109.714286-109.714286zM109.714286 822.857143c-21.942857 0-36.571429-14.628571-36.571429-36.571429v-804.571428c0-21.942857 14.628571-36.571429 36.571429-36.571429h804.571428c21.942857 0 36.571429 14.628571 36.571429 36.571429v804.571428c0 21.942857-14.628571 36.571429-36.571429 36.571429h-804.571428z"  horiz-adv-x="1024" />

    
    <glyph glyph-name="all_icon_shop" unicode="&#58910;" d="M943.796338 839.111111a23.324444 23.324444 0 0 0 23.324444-23.324444v-265.671111a113.777778 113.777778 0 0 0-56.888889-96.711112 48.355556 48.355556 0 0 1-16.497777-13.653333 42.666667 42.666667 0 0 1-11.946667 0h-9.102222L853.343004 440.888889a113.777778 113.777778 0 0 0-113.777777 110.933333V554.666667a56.888889 56.888889 0 0 1-16.497778 40.391111 56.888889 56.888889 0 0 1-81.351111 0A56.888889 56.888889 0 0 1 625.787449 554.666667v-4.551111a113.777778 113.777778 0 1 0-227.555556 0V554.666667a56.888889 56.888889 0 0 1-16.497777 40.391111 56.888889 56.888889 0 0 1-81.351112 0A56.888889 56.888889 0 0 1 284.454116 554.666667v-4.551111A113.777778 113.777778 0 0 0 170.676338 440.888889h-19.911111a31.288889 31.288889 0 0 1-10.24 0h-10.808889A56.888889 56.888889 0 0 1 113.787449 454.542222a113.777778 113.777778 0 0 0-56.888889 95.004445V815.786667A23.324444 23.324444 0 0 0 80.223004 839.111111h863.573334z m-284.444445-682.666667a23.324444 23.324444 0 0 0 23.324445-23.324444V-71.11111100000005h-56.888889v204.231111a23.893333 23.893333 0 0 0 22.755555 23.324444h10.808889z m284.444445 739.555556H80.223004A80.213333 80.213333 0 0 1 0.009671 815.786667V554.666667a170.666667 170.666667 0 0 1 85.333333-149.617778 22.755556 22.755556 0 0 1 0-8.533333v-414.151112A108.088889 108.088889 0 0 1 191.725227-128h636.586666a108.657778 108.657778 0 0 1 108.657778 108.088889V399.928889a10.808889 10.808889 0 0 1 0 3.982222A170.666667 170.666667 0 0 1 1024.009671 554.666667V815.786667A80.213333 80.213333 0 0 1 943.796338 896zM682.676338 554.666667a170.666667 170.666667 0 0 1 170.666666-170.666667c8.931556-0.568889 17.806222-0.568889 26.737778 0v-401.635556a51.2 51.2 0 0 0-51.768889-51.2H739.565227v201.955556A80.213333 80.213333 0 0 1 659.351893 213.33333300000004h-10.808889a80.213333 80.213333 0 0 1-79.644444-80.213333V-71.11111100000005H191.725227a51.2 51.2 0 0 0-51.2 51.2V384c10.012444-0.853333 20.138667-0.853333 30.151111 0a170.666667 170.666667 0 0 1 170.666666 170.666667 170.666667 170.666667 0 1 1 341.333334 0z"  horiz-adv-x="1024" />

    
    <glyph glyph-name="all_icon_spread" unicode="&#58911;" d="M204.8 827.733333a136.533333 136.533333 0 0 1-136.533333-136.533333v-614.4a136.533333 136.533333 0 0 1 136.533333-136.533333h614.4a136.533333 136.533333 0 0 1 136.533333 136.533333V691.2a136.533333 136.533333 0 0 1-136.533333 136.533333H204.8z m0 68.266667h614.4a204.8 204.8 0 0 0 204.8-204.8v-614.4a204.8 204.8 0 0 0-204.8-204.8H204.8a204.8 204.8 0 0 0-204.8 204.8V691.2a204.8 204.8 0 0 0 204.8 204.8z m0-546.133333V418.133333h614.4v-68.266666H204.8z m273.066667 341.333333h68.266666v-614.4H477.866667V691.2z"  horiz-adv-x="1024" />

    
    <glyph glyph-name="all_icon_tick_select" unicode="&#58912;" d="M804.571429 896H219.428571C95.085714 896 0 800.914286 0 676.571429v-585.142858c0-124.342857 95.085714-219.428571 219.428571-219.428571h585.142858c124.342857 0 219.428571 95.085714 219.428571 219.428571V676.571429c0 124.342857-95.085714 219.428571-219.428571 219.428571z m36.571428-380.342857l-416.914286-416.914286c-14.628571-14.628571-36.571429-14.628571-51.2 0L175.542857 310.857143c-14.628571 14.628571-14.628571 36.571429 0 51.2 14.628571 14.628571 36.571429 14.628571 51.2 0l182.857143-182.857143 387.657143 387.657143c14.628571 14.628571 36.571429 14.628571 51.2 0s7.314286-36.571429-7.314286-51.2z"  horiz-adv-x="1024" />

    
    <glyph glyph-name="all_icon_whitetick" unicode="&#58913;" d="M591.189333 93.525333L1300.309333 802.645333a85.333333 85.333333 0 1 0 120.661334-120.661333L651.434667-87.552a85.333333 85.333333 0 0 0-120.661334 0L146.090667 297.301333a85.333333 85.333333 0 0 0 120.661333 120.661334l324.266667-324.266667z"  horiz-adv-x="1536" />

    
    <glyph glyph-name="shop_icon_close" unicode="&#58914;" d="M512 896C228.430769 896 0 667.569231 0 384s228.430769-512 512-512 512 228.430769 512 512S795.569231 896 512 896z m212.676923-669.538462l-43.323077-43.323076-169.353846 169.353846-169.353846-169.353846L299.323077 226.461538l169.353846 169.353847-169.353846 165.415384 43.323077 43.323077 169.353846-169.353846 169.353846 169.353846 43.323077-43.323077-169.353846-169.353846 169.353846-165.415385z"  horiz-adv-x="1024" />

    
    <glyph glyph-name="all_icon_write" unicode="&#58915;" d="M939.484468-12.94382H53.551884c-17.258427 0-28.764045-11.505618-28.764045-28.764045s11.505618-28.764045 28.764045-28.764045h885.932584c17.258427 0 28.764045 11.505618 28.764045 28.764045s-11.505618 28.764045-28.764045 28.764045M692.113681 711.910112l109.303371-109.30337-385.438202-385.438203-57.52809 57.52809-57.52809 57.52809 391.191011 379.685393z m201.348315-23.011236l-51.775281-51.77528-109.303371 109.30337 51.775281 51.775281 109.303371-109.303371z m-575.280899-581.033707l-120.808989-11.505618 11.505618 126.561797 63.280899 63.280899 57.52809-57.52809 57.52809-57.52809-69.033708-63.280898z m-155.325843-69.033708l166.831461 17.258427h11.505618s5.752809 0 5.752809 5.752809H352.697951l92.044944 92.044943 517.752809 517.752809c11.505618 11.505618 11.505618 28.764045 0 40.269663l-155.325843 155.325843c-11.505618 11.505618-28.764045 11.505618-40.269663 0l-92.044944-92.044944-425.707865-425.707865-92.044944-92.044944v-5.752809s0-5.752809-5.752809-5.752809v-11.505618l-11.505617-172.584269c0-5.752809 0-17.258427 5.752808-23.011236h17.258427z"  horiz-adv-x="1024" />

    
    <glyph glyph-name="all_icon_order" unicode="&#58916;" d="M876.088889-71.11111100000005l-733.866667 5.688889 5.688889 802.133333H227.555556v-22.755555c0-39.822222 34.133333-73.955556 73.955555-73.955556h420.977778c39.822222 0 73.955556 34.133333 73.955555 73.955556v22.755555h85.333334L876.088889-71.11111100000005zM284.444444 793.6c0 5.688889 5.688889 17.066667 17.066667 17.066667h420.977778c5.688889 0 17.066667-5.688889 17.066667-17.066667v-79.644444c0-5.688889-5.688889-17.066667-17.066667-17.066667H301.511111c-11.377778 0-17.066667 11.377778-17.066667 17.066667V793.6z m591.644445 0H796.444444c0 39.822222-34.133333 73.955556-73.955555 73.955556H301.511111C261.688889 867.555556 227.555556 833.422222 227.555556 793.6H147.911111C113.777778 793.6 85.333333 765.1555559999999 85.333333 731.022222V-71.11111100000005c0-28.444444 28.444444-56.888889 62.577778-56.888889h733.866667c34.133333 0 62.577778 28.444444 62.577778 62.577778v796.444444c-5.688889 34.133333-34.133333 62.577778-68.266667 62.577778zM773.688889 520.5333330000001H307.2c-17.066667 0-28.444444-11.377778-28.444444-28.444444s11.377778-28.444444 28.444444-28.444445h466.488889c17.066667 0 28.444444 11.377778 28.444444 28.444445s-11.377778 28.444444-28.444444 28.444444M773.688889 378.311111H307.2c-17.066667 0-28.444444-11.377778-28.444444-28.444444s11.377778-28.444444 28.444444-28.444445h466.488889c17.066667 0 28.444444 11.377778 28.444444 28.444445s-11.377778 28.444444-28.444444 28.444444M477.866667 196.26666699999998h-170.666667c-17.066667 0-28.444444-11.377778-28.444444-28.444445s11.377778-28.444444 28.444444-28.444444h170.666667c17.066667 0 28.444444 11.377778 28.444444 28.444444s-11.377778 28.444444-28.444444 28.444445"  horiz-adv-x="1024" />

    
    <glyph glyph-name="all_icon_set" unicode="&#58917;" d="M517.389474 572.631579C425.768421 572.631579 350.315789 497.178947 350.315789 400.168421s75.452632-172.463158 172.463158-172.463158 172.463158 75.452632 172.463158 172.463158S614.4 572.631579 517.389474 572.631579m0-53.894737c64.673684 0 118.568421-53.894737 118.568421-118.568421s-53.894737-118.568421-118.568421-118.568421-118.568421 53.894737-118.568421 118.568421S452.715789 518.736842 517.389474 518.736842M328.757895 184.589474c5.389474 0 10.778947 0 16.168421-5.389474 21.557895-21.557895 48.505263-32.336842 80.842105-43.115789 10.778947-5.389474 16.168421-16.168421 16.168421-26.947369v-113.178947c0-5.389474 0-5.389474 5.389474-5.389474h150.905263c5.389474 0 5.389474 0 5.389474 5.389474v118.568421c0 10.778947 5.389474 21.557895 16.168421 26.947368 26.947368 10.778947 53.894737 26.947368 75.452631 43.11579 10.778947 5.389474 21.557895 10.778947 32.336842 0l102.4-59.284211h5.389474l75.452632 129.347369v5.389473l-107.789474 59.284211c-10.778947 5.389474-16.168421 16.168421-10.778947 26.947368 0 10.778947 5.389474 26.947368 5.389473 43.11579s0 26.947368-5.389473 43.115789c0 10.778947 5.389474 21.557895 10.778947 26.947369l107.789474 59.28421s5.389474 5.389474 0 5.389474l-75.452632 129.347368s-5.389474 5.389474-5.389474 0l-102.4-59.28421c-10.778947-5.389474-21.557895-5.389474-32.336842 0-21.557895 16.168421-48.505263 32.336842-75.452631 43.115789-10.778947 5.389474-16.168421 16.168421-16.168421 26.947369V793.6c0 5.389474 0 5.389474-5.389474 5.389474H452.715789c-5.389474 0-5.389474 0-5.389473-5.389474V680.421053c0-10.778947-5.389474-21.557895-16.168421-26.947369-26.947368-10.778947-53.894737-26.947368-80.842106-43.115789-10.778947-5.389474-26.947368-5.389474-32.336842 0l-97.010526 53.894737H215.578947L134.736842 529.515789v-5.389473l91.621053-53.894737c16.168421-5.389474 21.557895-16.168421 21.557894-26.947368-5.389474-16.168421-5.389474-32.336842-5.389473-48.505264s0-32.336842 5.389473-48.505263c0-10.778947-5.389474-21.557895-10.778947-26.947368l-91.621053-53.894737s-5.389474-5.389474 0-5.389474l75.452632-129.347368s5.389474-5.389474 5.389474 0l97.010526 53.894737h5.389474m274.863158-247.91579H452.715789c-32.336842 0-59.284211 26.947368-59.28421 59.284211V87.57894699999997c-21.557895 10.778947-43.115789 21.557895-64.673684 37.726316l-80.842106-48.505263c-16.168421-5.389474-26.947368-10.778947-43.115789-5.389474-16.168421 5.389474-26.947368 16.168421-37.726316 26.947369L91.621053 227.70526299999995c-5.389474 16.168421-10.778947 26.947368-5.389474 43.11579 5.389474 16.168421 16.168421 26.947368 26.947368 37.726315l75.452632 48.505264v37.726315 37.726316l-75.452632 43.11579c-16.168421 10.778947-21.557895 21.557895-26.947368 37.726315-5.389474 16.168421 0 32.336842 5.389474 43.11579l75.452631 129.347368c5.389474 16.168421 21.557895 21.557895 37.726316 26.947369 16.168421 5.389474 32.336842 0 43.115789-5.389474l80.842106-48.505263c16.168421 21.557895 37.726316 32.336842 64.673684 37.726316V793.6c0 32.336842 26.947368 59.284211 59.28421 59.284211h150.905264c32.336842 0 59.284211-26.947368 59.28421-59.284211v-102.4c21.557895-10.778947 37.726316-21.557895 53.894737-32.336842l86.231579 48.505263c16.168421 5.389474 26.947368 10.778947 43.115789 5.389474 16.168421-5.389474 26.947368-16.168421 37.726316-26.947369l75.452632-129.347368c10.778947-10.778947 10.778947-26.947368 5.389473-43.11579-5.389474-16.168421-16.168421-26.947368-26.947368-37.726315l-91.621053-53.894737V357.052632l91.621053-53.894737c16.168421-5.389474 21.557895-21.557895 26.947368-37.726316 5.389474-16.168421 0-32.336842-5.389473-43.11579l-75.452632-129.347368c-5.389474-16.168421-21.557895-21.557895-37.726316-26.947368-16.168421-5.389474-32.336842 0-43.115789 5.389473l-86.231579 48.505263c-16.168421-10.778947-37.726316-26.947368-53.894737-32.336842v-102.4c0-21.557895-26.947368-48.505263-59.28421-48.505263"  horiz-adv-x="1024" />

    
    <glyph glyph-name="all_icon_logistics" unicode="&#58918;" d="M955.733333 156.44444399999998H910.222222c-11.377778 62.577778-62.577778 113.777778-125.155555 113.777778h-11.377778c-62.577778 0-119.466667-45.511111-125.155556-108.088889H455.111111V713.955556h500.622222V156.44444399999998z m-102.4-28.444444c0-39.822222-28.444444-68.266667-68.266666-68.266667h-11.377778c-39.822222 0-68.266667 28.444444-68.266667 68.266667v11.377778c0 39.822222 28.444444 68.266667 68.266667 68.266666h11.377778c39.822222 0 68.266667-28.444444 68.266666-68.266666v-11.377778z m-551.822222 0c0-39.822222-28.444444-68.266667-68.266667-68.266667h-17.066666c-39.822222 0-68.266667 28.444444-68.266667 68.266667v11.377778c0 39.822222 28.444444 68.266667 68.266667 68.266666H227.555556c39.822222 0 68.266667-28.444444 68.266666-68.266666v-11.377778z m-233.244444 284.444444h210.488889c5.688889 0 17.066667 5.688889 22.755555 11.377778 5.688889 0 5.688889 11.377778 5.688889 17.066667V571.733333c0 17.066667-11.377778 28.444444-28.444444 28.444445H187.733333l34.133334 39.822222H398.222222V156.44444399999998h-39.822222C347.022222 219.02222200000006 295.822222 270.222222 227.555556 270.222222h-11.377778c-62.577778 0-119.466667-51.2-125.155556-113.777778h-22.755555V412.444444z m68.266666 130.844445h113.777778v-73.955556H68.266667v5.688889l68.266666 68.266667zM984.177778 776.533333H426.666667c-17.066667 0-28.444444-17.066667-28.444445-34.133333v-45.511111H210.488889c-5.688889 0-17.066667-5.688889-22.755556-11.377778L22.755556 509.155556v-5.688889s0-5.688889-5.688889-5.688889v-369.777778c0-17.066667 11.377778-28.444444 28.444444-28.444444h51.2c11.377778-56.888889 62.577778-102.4 125.155556-102.4H227.555556c62.577778 0 113.777778 45.511111 125.155555 102.4h295.822222c11.377778-56.888889 62.577778-102.4 125.155556-102.4h11.377778c62.577778 0 113.777778 45.511111 125.155555 102.4h73.955556c17.066667 0 28.444444 11.377778 28.444444 28.444444V742.4c0 17.066667-11.377778 34.133333-28.444444 34.133333z"  horiz-adv-x="1024" />

    
    <glyph glyph-name="all_icon_goods" unicode="&#58919;" d="M931.555556 799.288889c-11.377778 11.377778-28.444444 22.755556-51.2 22.755555H584.533333c-17.066667 0-34.133333-5.688889-51.2-22.755555l-455.111111-449.422222c-28.444444-28.444444-28.444444-73.955556 0-96.711111l295.822222-295.822223c28.444444-28.444444 73.955556-28.444444 96.711112 0l455.111111 455.111111c11.377778 11.377778 22.755556 28.444444 22.755555 51.2v284.444445c5.688889 17.066667-5.688889 34.133333-17.066666 51.2m-45.511112-45.511111s5.688889-5.688889 0 0v-301.511111l-455.111111-455.111111h-5.688889-5.688888L123.733333 292.97777799999994v5.688889 5.688889l455.111111 449.422222H886.044444M721.066667 588.8c-39.822222 39.822222-96.711111 39.822222-136.533334 0-34.133333-39.822222-34.133333-96.711111 0-136.533333 39.822222-39.822222 96.711111-39.822222 136.533334 0 34.133333 39.822222 34.133333 96.711111 0 136.533333m-39.822223-39.822222c17.066667-17.066667 17.066667-45.511111 0-62.577778-17.066667-17.066667-45.511111-17.066667-62.577777 0-17.066667 17.066667-17.066667 45.511111 0 62.577778 17.066667 17.066667 45.511111 17.066667 62.577777 0"  horiz-adv-x="1028" />

    
    <glyph glyph-name="all_icon_file" unicode="&#58920;" d="M847.644444-48.355556H187.733333V503.466667h284.444445c5.688889 0 11.377778 5.688889 17.066666 5.688889 5.688889 5.688889 5.688889 11.377778 5.688889 17.066666V816.355556h347.022223v-864.711112zM443.733333 554.666667H227.555556l216.177777 221.866666V554.666667zM876.088889 873.244444H472.177778h-5.688889-5.688889C455.111111 867.555556 455.111111 867.555556 455.111111 861.866667L142.222222 548.977778l-5.688889-5.688889V-71.111111c0-17.066667 11.377778-28.444444 28.444445-28.444445h716.8c17.066667 0 28.444444 11.377778 28.444444 28.444445V844.8c-5.688889 11.377778-17.066667 28.444444-34.133333 28.444444z"  horiz-adv-x="1024" />

    
    <glyph glyph-name="all_icon_finance" unicode="&#58921;" d="M512 878.933333C238.933333 878.933333 17.066667 657.066667 17.066667 384s221.866667-494.933333 494.933333-494.933333c273.066667 0 494.933333 221.866667 494.933333 494.933333S785.066667 878.933333 512 878.933333m0-51.2c244.622222 0 443.733333-199.111111 443.733333-443.733333s-199.111111-443.733333-443.733333-443.733333S68.266667 139.37777800000003 68.266667 384 267.377778 827.733333 512 827.733333M705.422222 338.488889h-170.666666V412.444444h170.666666c17.066667 0 28.444444 11.377778 28.444445 28.444445s-11.377778 28.444444-28.444445 28.444444H551.822222l96.711111 170.666667c5.688889 11.377778 5.688889 28.444444-11.377777 39.822222-11.377778 5.688889-28.444444 5.688889-39.822223-11.377778L512 509.155556 426.666667 662.7555560000001c-11.377778 11.377778-28.444444 17.066667-39.822223 11.377777-11.377778-11.377778-17.066667-28.444444-11.377777-39.822222l96.711111-170.666667H318.577778c-17.066667 0-28.444444-11.377778-28.444445-28.444444s11.377778-28.444444 28.444445-28.444444h170.666666v-73.955556h-170.666666c-17.066667 0-28.444444-11.377778-28.444445-28.444444s11.377778-28.444444 28.444445-28.444445h170.666666v-159.288889c0-11.377778 11.377778-22.755556 22.755556-22.755555s22.755556 11.377778 22.755556 22.755555v159.288889h170.666666c17.066667 0 28.444444 11.377778 28.444445 28.444445 0 22.755556-11.377778 34.133333-28.444445 34.133333"  horiz-adv-x="1024" />

    


  </font>
</defs>
</svg>
